<?xml version="1.0" encoding="UTF-8"?>
<svg version="1.1" viewBox="0 0 24 24" xmlns="http://www.w3.org/2000/svg">
<path d="m1.4598 2.3947v4.693e-4a0.46006 0.46005 0 0 0-0.4598 0.45966v18.29a0.46006 0.46005 0 0 0 0.45983 0.46039h21.076a0.46006 0.46005 0 0 0 0.46038-0.46038v-9.0874a0.47733 0.47785 0 0 0 0-0.11547v-9.0879a0.46006 0.46005 0 0 0-0.4604-0.45962h-21.076zm0.46039 0.92058h20.157v10.417l1.45e-4 -3.37e-4v6.9545l-1.77e-4 -1.7e-5h-20.157v-7.0205l3.974e-4 5.78e-4v-10.351zm10.098 6.4028a2.2839 2.2829 0 0 0-2.284 2.2829 2.2839 2.2829 0 0 0 2.284 2.2829 2.2839 2.2829 0 0 0 2.284-2.2829 2.2839 2.2829 0 0 0-2.284-2.2829z"/>
</svg>