<?xml version="1.0" encoding="UTF-8"?>
<svg version="1.1" viewBox="0 0 24 24" xmlns="http://www.w3.org/2000/svg">
<path d="m12.002 1.9999a0.68925 0.68925 0 0 0-0.68937 0.68937 0.68925 0.68925 0 0 0 0.68937 0.68914 0.68925 0.68925 0 0 0 0.68914-0.68914 0.68925 0.68925 0 0 0-0.68914-0.68937zm-2.4083 0.31899a0.68925 0.68925 0 0 0-0.68914 0.68937 0.68925 0.68925 0 0 0 0.68914 0.68914 0.68925 0.68925 0 0 0 0.68937-0.68914 0.68925 0.68925 0 0 0-0.68937-0.68937zm4.8154 0.00195a0.68925 0.68925 0 0 0-0.68937 0.68914 0.68925 0.68925 0 0 0 0.68937 0.68937 0.68925 0.68925 0 0 0 0.68914-0.68937 0.68925 0.68925 0 0 0-0.68914-0.68914zm-7.0615 0.92827a0.68925 0.68925 0 0 0-0.68914 0.68937 0.68925 0.68925 0 0 0 0.68914 0.68914 0.68925 0.68925 0 0 0 0.68937-0.68914 0.68925 0.68925 0 0 0-0.68937-0.68937zm9.3091 0.00527a0.68925 0.68925 0 0 0-0.68937 0.68914 0.68925 0.68925 0 0 0 0.68937 0.68937 0.68925 0.68925 0 0 0 0.68914-0.68937 0.68925 0.68925 0 0 0-0.68914-0.68914zm-5.2622 1.106a0.68925 0.68925 0 0 0-0.68914 0.68914 0.68925 0.68925 0 0 0 0.68914 0.68937 0.68925 0.68925 0 0 0 0.68937-0.68937 0.68925 0.68925 0 0 0-0.68937-0.68914zm2.4152 0.20921a0.68925 0.68925 0 0 0-0.68914 0.68914 0.68925 0.68925 0 0 0 0.68914 0.68937 0.68925 0.68925 0 0 0 0.68914-0.68937 0.68925 0.68925 0 0 0-0.68914-0.68914zm-8.3909 0.1594a0.68925 0.68925 0 0 0-0.68937 0.68937 0.68925 0.68925 0 0 0 0.68937 0.68914 0.68925 0.68925 0 0 0 0.68914-0.68914 0.68925 0.68925 0 0 0-0.68914-0.68937zm13.168 0.00272a0.68925 0.68925 0 0 0-0.68937 0.68937 0.68925 0.68925 0 0 0 0.68937 0.68914 0.68925 0.68925 0 0 0 0.68914-0.68914 0.68925 0.68925 0 0 0-0.68914-0.68937zm-9.5344 0.25238a0.68925 0.68925 0 0 0-0.68937 0.68914 0.68925 0.68925 0 0 0 0.68937 0.68914 0.68925 0.68925 0 0 0 0.68914-0.68914 0.68925 0.68925 0 0 0-0.68914-0.68914zm6.9572 0.60866a0.68925 0.68925 0 0 0-0.68937 0.68914 0.68925 0.68925 0 0 0 0.68937 0.68937 0.68925 0.68925 0 0 0 0.68914-0.68937 0.68925 0.68925 0 0 0-0.68914-0.68914zm-8.9459 0.78255a0.68925 0.68925 0 0 0-0.68937 0.68937 0.68925 0.68925 0 0 0 0.68937 0.68914 0.68925 0.68925 0 0 0 0.68914-0.68914 0.68925 0.68925 0 0 0-0.68914-0.68937zm4.9394 0.28051a0.68925 0.68925 0 0 0-0.68937 0.68937 0.68925 0.68925 0 0 0 0.68937 0.68914 0.68925 0.68925 0 0 0 0.68914-0.68914 0.68925 0.68925 0 0 0-0.68914-0.68937zm-8.0644 0.00178a0.68925 0.68925 0 0 0-0.68914 0.68914 0.68925 0.68925 0 0 0 0.68914 0.68937 0.68925 0.68925 0 0 0 0.68937-0.68937 0.68925 0.68925 0 0 0-0.68937-0.68914zm16.129 0a0.68925 0.68925 0 0 0-0.68914 0.68937 0.68925 0.68925 0 0 0 0.68914 0.68914 0.68925 0.68925 0 0 0 0.68937-0.68914 0.68925 0.68925 0 0 0-0.68937-0.68937zm-10.394 0.62431a0.68925 0.68925 0 0 0-0.68914 0.68937 0.68925 0.68925 0 0 0 0.68914 0.68914 0.68925 0.68925 0 0 0 0.68937-0.68914 0.68925 0.68925 0 0 0-0.68937-0.68937zm4.6532 0.00469a0.68925 0.68925 0 0 0-0.68914 0.68937 0.68925 0.68925 0 0 0 0.68914 0.68914 0.68925 0.68925 0 0 0 0.68937-0.68914 0.68925 0.68925 0 0 0-0.68937-0.68937zm3.3971 0.021293a0.68925 0.68925 0 0 0-0.68914 0.68914 0.68925 0.68925 0 0 0 0.68914 0.68937 0.68925 0.68925 0 0 0 0.68937-0.68937 0.68925 0.68925 0 0 0-0.68937-0.68914zm-12.051 1.0543a0.68925 0.68925 0 0 0-0.68937 0.68937 0.68925 0.68925 0 0 0 0.68937 0.68914 0.68925 0.68925 0 0 0 0.68914-0.68914 0.68925 0.68925 0 0 0-0.68914-0.68937zm15.325 0.54168a0.68925 0.68925 0 0 0-0.68914 0.68914 0.68925 0.68925 0 0 0 0.68914 0.68937 0.68925 0.68925 0 0 0 0.68937-0.68937 0.68925 0.68925 0 0 0-0.68937-0.68914zm-17.99 0.00469a0.68925 0.68925 0 0 0-0.68914 0.68914 0.68925 0.68925 0 0 0 0.68914 0.68937 0.68925 0.68925 0 0 0 0.68937-0.68937 0.68925 0.68925 0 0 0-0.68937-0.68914zm13.027 0.076961a0.68925 0.68925 0 0 0-0.68914 0.68914 0.68925 0.68925 0 0 0 0.68914 0.68937 0.68925 0.68925 0 0 0 0.68937-0.68937 0.68925 0.68925 0 0 0-0.68937-0.68914zm-8.0681 0.0037a0.68925 0.68925 0 0 0-0.68914 0.68937 0.68925 0.68925 0 0 0 0.68914 0.68914 0.68925 0.68925 0 0 0 0.68937-0.68914 0.68925 0.68925 0 0 0-0.68937-0.68937zm10.781 0.51609a0.68925 0.68925 0 0 0-0.68914 0.68937 0.68925 0.68925 0 0 0 0.68914 0.68914 0.68925 0.68925 0 0 0 0.68937-0.68914 0.68925 0.68925 0 0 0-0.68937-0.68937zm-6.7455 0.26937a2.2303 2.2303 0 0 0-2.2304 2.2302 2.2303 2.2303 0 0 0 2.2304 2.2304 2.2303 2.2303 0 0 0 2.2302-2.2304 2.2303 2.2303 0 0 0-2.2302-2.2302zm-6.9553 0.93099a0.68925 0.68925 0 0 0-0.68914 0.68914 0.68925 0.68925 0 0 0 0.68914 0.68937 0.68925 0.68925 0 0 0 0.68937-0.68937 0.68925 0.68925 0 0 0-0.68937-0.68914zm11.607 0.60711a0.68925 0.68925 0 0 0-0.68914 0.68937 0.68925 0.68925 0 0 0 0.68914 0.68914 0.68925 0.68925 0 0 0 0.68937-0.68914 0.68925 0.68925 0 0 0-0.68937-0.68937zm-9.3095 6.05e-4a0.68925 0.68925 0 0 0-0.68937 0.68937 0.68925 0.68925 0 0 0 0.68937 0.68914 0.68925 0.68925 0 0 0 0.68914-0.68914 0.68925 0.68925 0 0 0-0.68914-0.68937zm13.965 6.05e-4a0.68925 0.68925 0 0 0-0.68914 0.68937 0.68925 0.68925 0 0 0 0.68914 0.68914 0.68925 0.68925 0 0 0 0.68937-0.68914 0.68925 0.68925 0 0 0-0.68937-0.68937zm-18.621 0.0018a0.68925 0.68925 0 0 0-0.68937 0.68914 0.68925 0.68925 0 0 0 0.68937 0.68937 0.68925 0.68925 0 0 0 0.68914-0.68937 0.68925 0.68925 0 0 0-0.68914-0.68914zm16.271 0.60711a0.68925 0.68925 0 0 0-0.68937 0.68914 0.68925 0.68925 0 0 0 0.68937 0.68937 0.68925 0.68925 0 0 0 0.68914-0.68937 0.68925 0.68925 0 0 0-0.68914-0.68914zm-13.702 1.1972a0.68925 0.68925 0 0 0-0.68937 0.68914 0.68925 0.68925 0 0 0 0.68937 0.68937 0.68925 0.68925 0 0 0 0.68914-0.68937 0.68925 0.68925 0 0 0-0.68914-0.68914zm10.776 0.52584a0.68925 0.68925 0 0 0-0.68914 0.68937 0.68925 0.68925 0 0 0 0.68914 0.68914 0.68925 0.68925 0 0 0 0.68937-0.68914 0.68925 0.68925 0 0 0-0.68937-0.68937zm-8.0655 3.78e-4a0.68925 0.68925 0 0 0-0.68937 0.68914 0.68925 0.68925 0 0 0 0.68937 0.68937 0.68925 0.68925 0 0 0 0.68914-0.68937 0.68925 0.68925 0 0 0-0.68914-0.68914zm-4.9602 0.07657a0.68925 0.68925 0 0 0-0.68937 0.68937 0.68925 0.68925 0 0 0 0.68937 0.68914 0.68925 0.68925 0 0 0 0.68914-0.68914 0.68925 0.68925 0 0 0-0.68914-0.68937zm17.99 0.0035a0.68925 0.68925 0 0 0-0.68914 0.68914 0.68925 0.68925 0 0 0 0.68914 0.68937 0.68925 0.68925 0 0 0 0.68937-0.68937 0.68925 0.68925 0 0 0-0.68937-0.68914zm-2.665 0.53936a0.68925 0.68925 0 0 0-0.68914 0.68914 0.68925 0.68925 0 0 0 0.68914 0.68914 0.68925 0.68925 0 0 0 0.68937-0.68914 0.68925 0.68925 0 0 0-0.68937-0.68914zm-12.051 1.0541a0.68925 0.68925 0 0 0-0.68914 0.68937 0.68925 0.68925 0 0 0 0.68914 0.68914 0.68925 0.68925 0 0 0 0.68937-0.68914 0.68925 0.68925 0 0 0-0.68937-0.68937zm8.0489 0.02501a0.68925 0.68925 0 0 0-0.68937 0.68914 0.68925 0.68925 0 0 0 0.68937 0.68937 0.68925 0.68925 0 0 0 0.68914-0.68937 0.68925 0.68925 0 0 0-0.68914-0.68914zm-4.6589 0.0047a0.68925 0.68925 0 0 0-0.68914 0.68914 0.68925 0.68925 0 0 0 0.68914 0.68937 0.68925 0.68925 0 0 0 0.68937-0.68937 0.68925 0.68925 0 0 0-0.68937-0.68914zm2.3306 0.61611a0.68925 0.68925 0 0 0-0.68937 0.68914 0.68925 0.68925 0 0 0 0.68937 0.68937 0.68925 0.68925 0 0 0 0.68914-0.68937 0.68925 0.68925 0 0 0-0.68914-0.68914zm-8.0644 0.0082a0.68925 0.68925 0 0 0-0.68914 0.68937 0.68925 0.68925 0 0 0 0.68914 0.68914 0.68925 0.68925 0 0 0 0.68937-0.68914 0.68925 0.68925 0 0 0-0.68937-0.68937zm16.126 0a0.68925 0.68925 0 0 0-0.68937 0.68914 0.68925 0.68925 0 0 0 0.68937 0.68937 0.68925 0.68925 0 0 0 0.68914-0.68937 0.68925 0.68925 0 0 0-0.68914-0.68914zm-3.1258 0.27719a0.68925 0.68925 0 0 0-0.68937 0.68914 0.68925 0.68925 0 0 0 0.68937 0.68937 0.68925 0.68925 0 0 0 0.68914-0.68937 0.68925 0.68925 0 0 0-0.68914-0.68914zm-8.9417 0.7841a0.68925 0.68925 0 0 0-0.68914 0.68914 0.68925 0.68925 0 0 0 0.68914 0.68937 0.68925 0.68925 0 0 0 0.68937-0.68937 0.68925 0.68925 0 0 0-0.68937-0.68914zm6.9583 0.60889a0.68925 0.68925 0 0 0-0.68937 0.68914 0.68925 0.68925 0 0 0 0.68937 0.68937 0.68925 0.68925 0 0 0 0.68914-0.68937 0.68925 0.68925 0 0 0-0.68914-0.68914zm3.6327 0.25472a0.68925 0.68925 0 0 0-0.68937 0.68937 0.68925 0.68925 0 0 0 0.68937 0.68914 0.68925 0.68925 0 0 0 0.68914-0.68914 0.68925 0.68925 0 0 0-0.68914-0.68937zm-13.17 0.0012a0.68925 0.68925 0 0 0-0.68914 0.68914 0.68925 0.68925 0 0 0 0.68914 0.68937 0.68925 0.68925 0 0 0 0.68937-0.68937 0.68925 0.68925 0 0 0-0.68937-0.68914zm4.7761 0.16018a0.68925 0.68925 0 0 0-0.68937 0.68937 0.68925 0.68925 0 0 0 0.68937 0.68914 0.68925 0.68925 0 0 0 0.68914-0.68914 0.68925 0.68925 0 0 0-0.68914-0.68937zm2.4165 0.21312a0.68925 0.68925 0 0 0-0.68914 0.68937 0.68925 0.68925 0 0 0 0.68914 0.68914 0.68925 0.68925 0 0 0 0.68937-0.68914 0.68925 0.68925 0 0 0-0.68937-0.68937zm4.0481 1.1054a0.68925 0.68925 0 0 0-0.68937 0.68937 0.68925 0.68925 0 0 0 0.68937 0.68914 0.68925 0.68925 0 0 0 0.68914-0.68914 0.68925 0.68925 0 0 0-0.68914-0.68937zm-9.3129 0.0031a0.68925 0.68925 0 0 0-0.68937 0.68937 0.68925 0.68925 0 0 0 0.68937 0.68914 0.68925 0.68925 0 0 0 0.68914-0.68914 0.68925 0.68925 0 0 0-0.68914-0.68937zm2.2456 0.92709a0.68925 0.68925 0 0 0-0.68937 0.68937 0.68925 0.68925 0 0 0 0.68937 0.68914 0.68925 0.68925 0 0 0 0.68914-0.68914 0.68925 0.68925 0 0 0-0.68914-0.68937zm4.8177 3.78e-4a0.68925 0.68925 0 0 0-0.68914 0.68914 0.68925 0.68925 0 0 0 0.68914 0.68914 0.68925 0.68925 0 0 0 0.68937-0.68914 0.68925 0.68925 0 0 0-0.68937-0.68914zm-2.4068 0.31235a0.68925 0.68925 0 0 0-0.68937 0.68914 0.68925 0.68925 0 0 0 0.68937 0.68937 0.68925 0.68925 0 0 0 0.68914-0.68937 0.68925 0.68925 0 0 0-0.68914-0.68914z"/>
</svg>