<?xml version="1.0" encoding="UTF-8"?>
<svg version="1.1" viewBox="0 0 24 24" xmlns="http://www.w3.org/2000/svg">
<path d="m1.4598 2.3948v5.595e-4c-0.25383 1.404e-4 -0.45941 0.20581-0.45963 0.45963l-1.86e-4 18.29c-1.8104e-4 0.25412 0.2057 0.46024 0.45981 0.46039h21.076c0.25434 1.79e-4 0.46057-0.20605 0.46039-0.46039v-9.0872c0.0046-0.03835 0.0046-0.07712 0-0.11547v-9.0879c-2.5e-4 -0.25404-0.20634-0.45981-0.46039-0.45963h-21.076zm0.46039 0.92056h20.156v10.417l1.86e-4 -3.61e-4v6.9542h-20.156v-7.0203l3.61e-4 5.78e-4v-10.351zm5.6374 0.32812c-0.3635 5.97e-5 -0.65817 0.29478-0.6581 0.65831 6.1e-5 0.36343 0.29468 0.65806 0.6581 0.6581 0.3635 5.95e-5 0.65824-0.2946 0.65831-0.6581 5.9e-5 -0.36361-0.2947-0.65835-0.65831-0.65831zm8.8898 0.00504c-0.3635-5.99e-5 -0.65824 0.2946-0.65831 0.6581-6e-5 0.36361 0.2947 0.65835 0.65831 0.65831 0.3635-5.99e-5 0.65817-0.29478 0.6581-0.65831-6.1e-5 -0.36343-0.29468-0.65806-0.6581-0.6581zm-5.0252 1.0562c-0.36343 5.95e-5 -0.65806 0.29468-0.6581 0.6581-6e-5 0.3635 0.2946 0.65824 0.6581 0.65831 0.36361 5.95e-5 0.65835-0.2947 0.65831-0.65831-6e-5 -0.3635-0.29478-0.65817-0.65831-0.6581zm2.3064 0.19979c-0.36343 5.95e-5 -0.65806 0.29468-0.6581 0.6581-6.1e-5 0.3635 0.2946 0.65824 0.6581 0.65831 0.3635-5.99e-5 0.65817-0.29478 0.6581-0.65831-6.1e-5 -0.36343-0.29468-0.65806-0.6581-0.6581zm-8.013 0.15222c-0.36361-6e-5 -0.65835 0.2947-0.65831 0.65831 5.9e-5 0.3635 0.29478 0.65817 0.65831 0.6581 0.36343-5.98e-5 0.65806-0.29468 0.6581-0.6581 6.1e-5 -0.3635-0.2946-0.65824-0.6581-0.65831zm12.575 0.0026c-0.36361-6e-5 -0.65835 0.2947-0.65831 0.65831 6e-5 0.3635 0.29478 0.65817 0.65831 0.6581 0.36343-5.99e-5 0.65806-0.29468 0.6581-0.6581 5.9e-5 -0.3635-0.2946-0.65824-0.6581-0.65831zm-9.1049 0.24101c-0.3635-5.99e-5 -0.65824 0.2946-0.65831 0.6581 6.1e-5 0.3635 0.29478 0.65817 0.65831 0.6581 0.36343-6e-5 0.65806-0.29468 0.6581-0.6581-6.1e-5 -0.36343-0.29468-0.65806-0.6581-0.6581zm6.6438 0.58124c-0.3635-5.99e-5 -0.65842 0.2946-0.65849 0.6581-6e-5 0.36361 0.29488 0.65835 0.65849 0.65831 0.3635-5.99e-5 0.65799-0.29478 0.65792-0.65831-5.9e-5 -0.36343-0.29449-0.65806-0.65792-0.6581zm-8.5429 0.74729c-0.36361-5.99e-5 -0.65835 0.2947-0.65831 0.65831 6e-5 0.3635 0.29478 0.65817 0.65831 0.6581 0.36343-5.98e-5 0.65806-0.29468 0.6581-0.6581 6e-5 -0.3635-0.2946-0.65824-0.6581-0.65831zm4.7169 0.26787c-0.36361-6e-5 -0.65835 0.2947-0.65831 0.65831 5.9e-5 0.3635 0.29478 0.65817 0.65831 0.6581 0.36343-6e-5 0.65806-0.29468 0.6581-0.6581 6.1e-5 -0.3635-0.2946-0.65824-0.6581-0.65831zm-7.7011 0.00169c-0.36343 5.96e-5 -0.65788 0.29468-0.65792 0.6581-5.9e-5 0.3635 0.29441 0.65824 0.65792 0.65831 0.36361 5.96e-5 0.65835-0.2947 0.65831-0.65831-6e-5 -0.3635-0.29478-0.65817-0.65831-0.6581zm15.403 0c-0.3635 5.96e-5 -0.65817 0.29478-0.6581 0.65831 6e-5 0.36343 0.29468 0.65806 0.6581 0.6581 0.3635 5.96e-5 0.65824-0.2946 0.65831-0.6581 5.9e-5 -0.36361-0.2947-0.65835-0.65831-0.65831zm-9.9258 0.59619c-0.3635 5.96e-5 -0.65817 0.29478-0.6581 0.65831 6e-5 0.36343 0.29468 0.65806 0.6581 0.6581 0.3635 6e-5 0.65824-0.2946 0.65831-0.6581 5.9e-5 -0.36361-0.2947-0.65835-0.65831-0.65831zm4.4436 0.00448c-0.3635 5.95e-5 -0.65817 0.29478-0.6581 0.65831 5.9e-5 0.36343 0.29468 0.65806 0.6581 0.6581 0.3635 6e-5 0.65824-0.2946 0.65831-0.6581 6e-5 -0.36361-0.2947-0.65835-0.65831-0.65831zm3.2441 0.020333c-0.36343 5.96e-5 -0.65806 0.29468-0.6581 0.6581-5.9e-5 0.3635 0.2946 0.65824 0.6581 0.65831 0.36361 6e-5 0.65835-0.2947 0.65831-0.65831-6e-5 -0.3635-0.29478-0.65817-0.65831-0.6581zm-11.508 1.0068c-0.36361-5.98e-5 -0.65835 0.2947-0.65831 0.65831 6.1e-5 0.3635 0.29478 0.65817 0.65831 0.6581 0.36343-6e-5 0.65806-0.29468 0.6581-0.6581 5.9e-5 -0.3635-0.2946-0.65824-0.6581-0.65831zm14.634 0.51728c-0.36343 6e-5 -0.65806 0.29468-0.6581 0.6581-6e-5 0.3635 0.2946 0.65824 0.6581 0.65831 0.36361 6e-5 0.65835-0.2947 0.65831-0.65831-5.9e-5 -0.3635-0.29478-0.65817-0.65831-0.6581zm-17.18 0.0045c-0.36343 6e-5 -0.65806 0.29468-0.6581 0.6581-5.9e-5 0.3635 0.2946 0.65824 0.6581 0.65831 0.36361 6e-5 0.65835-0.2947 0.65831-0.65831-6e-5 -0.3635-0.29478-0.65817-0.65831-0.6581zm12.44 0.07349c-0.36343 6e-5 -0.65806 0.29468-0.6581 0.6581-6e-5 0.3635 0.2946 0.65824 0.6581 0.65831 0.36361 6e-5 0.65835-0.2947 0.65831-0.65831-5.9e-5 -0.3635-0.29478-0.65817-0.65831-0.6581zm-7.7047 0.0035c-0.3635 6e-5 -0.65817 0.29478-0.6581 0.65831 5.9e-5 0.36343 0.29468 0.65806 0.6581 0.6581 0.3635 6e-5 0.65824-0.2946 0.65831-0.6581 6.1e-5 -0.36361-0.2947-0.65835-0.65831-0.65831zm10.295 0.49284c-0.3635 6e-5 -0.65817 0.29478-0.6581 0.65831 6.1e-5 0.36343 0.29468 0.65806 0.6581 0.6581 0.3635 6e-5 0.65824-0.2946 0.65831-0.6581 6.1e-5 -0.36361-0.2947-0.65835-0.65831-0.65831zm-6.4272 0.09999c-1.2614-3.5e-5 -2.284 1.0221-2.284 2.2829-3e-6 1.2608 1.0226 2.2829 2.284 2.2829 1.2614 3.6e-5 2.284-1.0221 2.284-2.2829 1e-6 -1.2608-1.0226-2.2829-2.284-2.2829zm-6.6568 1.0463c-0.36343 5.9e-5 -0.65806 0.29468-0.6581 0.6581-5.9e-5 0.3635 0.2946 0.65824 0.6581 0.65831 0.36361 5.9e-5 0.65835-0.2947 0.65831-0.65831-6e-5 -0.3635-0.29478-0.65817-0.65831-0.6581zm11.085 0.57976c-0.3635 6e-5 -0.65817 0.29478-0.6581 0.65831 6.1e-5 0.36343 0.29468 0.65806 0.6581 0.6581 0.3635 6e-5 0.65824-0.2946 0.65831-0.6581 6e-5 -0.36361-0.2947-0.65835-0.65831-0.65831zm-8.8901 5.78e-4c-0.36361-6e-5 -0.65835 0.2947-0.65831 0.65831 6.1e-5 0.3635 0.29478 0.65817 0.65831 0.6581 0.36343-6e-5 0.65806-0.29468 0.6581-0.6581 6.1e-5 -0.3635-0.2946-0.65824-0.6581-0.65831zm13.336 5.41e-4c-0.3635 6e-5 -0.65817 0.29478-0.6581 0.65831 6e-5 0.36343 0.29468 0.65806 0.6581 0.6581 0.3635 6e-5 0.65824-0.2946 0.65831-0.6581 6e-5 -0.36361-0.2947-0.65835-0.65831-0.65831zm-17.782 0.0017c-0.3635-6e-5 -0.65824 0.2946-0.65831 0.6581-6e-5 0.36361 0.2947 0.65835 0.65831 0.65831 0.3635-6e-5 0.65817-0.29478 0.6581-0.65831-5.9e-5 -0.36343-0.29468-0.65806-0.6581-0.6581zm15.538 0.57976c-0.3635-6e-5 -0.65824 0.2946-0.65831 0.6581-6e-5 0.36361 0.2947 0.65835 0.65831 0.65831 0.3635-6e-5 0.65817-0.29478 0.6581-0.65831-6e-5 -0.36343-0.29468-0.65806-0.6581-0.6581zm-13.085 1.1433c-0.3635-6e-5 -0.65824 0.2946-0.65831 0.6581-5.9e-5 0.36361 0.2947 0.65835 0.65831 0.65831 0.3635-6e-5 0.65817-0.29478 0.6581-0.65831-6.1e-5 -0.36343-0.29468-0.65806-0.6581-0.6581zm10.291 0.50215c-0.3635 6e-5 -0.65817 0.29478-0.6581 0.65831 5.9e-5 0.36343 0.29468 0.65806 0.6581 0.6581 0.3635 6e-5 0.65824-0.2946 0.65831-0.6581 6e-5 -0.36361-0.2947-0.65835-0.65831-0.65831zm-7.7022 3.61e-4c-0.3635-6e-5 -0.65824 0.2946-0.65831 0.6581-6e-5 0.36361 0.2947 0.65835 0.65831 0.65831 0.3635-6.1e-5 0.65817-0.29478 0.6581-0.65831-6.1e-5 -0.36343-0.29468-0.65806-0.6581-0.6581zm-4.7367 0.07312c-0.36361-6e-5 -0.65835 0.2947-0.65831 0.65831 6e-5 0.3635 0.29478 0.65817 0.65831 0.6581 0.36343-5.9e-5 0.65806-0.29468 0.6581-0.6581 6.1e-5 -0.3635-0.2946-0.65824-0.6581-0.65831zm17.18 0.0034c-0.36343 6e-5 -0.65806 0.29468-0.6581 0.6581-5.9e-5 0.3635 0.2946 0.65824 0.6581 0.65831 0.36361 6e-5 0.65835-0.2947 0.65831-0.65831-5.9e-5 -0.3635-0.29478-0.65817-0.65831-0.6581zm-2.545 0.51504c-0.36343 5.9e-5 -0.65806 0.29468-0.6581 0.6581 6.1e-5 0.36343 0.29468 0.65806 0.6581 0.6581 0.3635 6e-5 0.65824-0.2946 0.65831-0.6581-6e-5 -0.3635-0.29478-0.65817-0.65831-0.6581zm-11.508 1.0066c-0.3635 5.9e-5 -0.65817 0.29478-0.6581 0.65831 6e-5 0.36343 0.29468 0.65806 0.6581 0.6581 0.3635 6e-5 0.65824-0.2946 0.65831-0.6581 6e-5 -0.36361-0.2947-0.65835-0.65831-0.65831zm7.6863 0.02388c-0.3635-6e-5 -0.65824 0.2946-0.65831 0.6581-6.1e-5 0.36361 0.2947 0.65835 0.65831 0.65831 0.3635-6e-5 0.65817-0.29478 0.6581-0.65831-5.9e-5 -0.36343-0.29468-0.65806-0.6581-0.6581zm-4.449 0.0045c-0.36343 5.9e-5 -0.65806 0.29468-0.6581 0.6581-6e-5 0.3635 0.2946 0.65824 0.6581 0.65831 0.36361 5.9e-5 0.65835-0.2947 0.65831-0.65831-5.9e-5 -0.3635-0.29478-0.65817-0.65831-0.6581zm2.2256 0.58836c-0.3635-6e-5 -0.65824 0.2946-0.65831 0.6581-6e-5 0.36361 0.2947 0.65835 0.65831 0.65831 0.3635-6e-5 0.65817-0.29478 0.6581-0.65831-6e-5 -0.36343-0.29468-0.65806-0.6581-0.6581zm-7.7011 0.0078c-0.3635 6e-5 -0.65817 0.29478-0.6581 0.65831 6.1e-5 0.36343 0.29468 0.65806 0.6581 0.6581 0.3635 6e-5 0.65824-0.2946 0.65831-0.6581 5.9e-5 -0.36361-0.2947-0.65835-0.65831-0.65831zm15.4 0c-0.3635-6e-5 -0.65824 0.2946-0.65831 0.6581-6e-5 0.36361 0.2947 0.65835 0.65831 0.65831 0.3635-6e-5 0.65817-0.29478 0.6581-0.65831-6.1e-5 -0.36343-0.29468-0.65806-0.6581-0.6581zm-2.985 0.2647c-0.3635-6e-5 -0.65824 0.2946-0.65831 0.6581-6.1e-5 0.36361 0.2947 0.65835 0.65831 0.65831 0.3635-6e-5 0.65817-0.29478 0.6581-0.65831-6e-5 -0.36343-0.29468-0.65806-0.6581-0.6581zm-8.5389 0.74877c-0.36343 6e-5 -0.65806 0.29468-0.6581 0.6581-5.9e-5 0.3635 0.2946 0.65824 0.6581 0.65831 0.36361 6e-5 0.65835-0.2947 0.65831-0.65831-6.1e-5 -0.3635-0.29478-0.65817-0.65831-0.6581zm6.6449 0.58146c-0.3635-6e-5 -0.65842 0.2946-0.65849 0.6581-6.1e-5 0.36361 0.29488 0.65835 0.65849 0.65831 0.3635-6e-5 0.65799-0.29478 0.65792-0.65831-5.9e-5 -0.36343-0.2945-0.65806-0.65792-0.6581zm3.4691 0.24325c-0.36361-6e-5 -0.65853 0.2947-0.65849 0.65831 5.9e-5 0.3635 0.29497 0.65817 0.65849 0.6581 0.36343-6e-5 0.65788-0.29468 0.65792-0.6581 5.9e-5 -0.3635-0.29441-0.65824-0.65792-0.65831zm-12.576 0.0011c-0.36343 5.9e-5 -0.65806 0.29468-0.6581 0.6581-6.1e-5 0.3635 0.2946 0.65824 0.6581 0.65831 0.36361 5.9e-5 0.65835-0.2947 0.65831-0.65831-5.9e-5 -0.3635-0.29478-0.65817-0.65831-0.6581zm4.5609 0.15296c-0.36361-5.9e-5 -0.65835 0.2947-0.65831 0.65831 5.9e-5 0.3635 0.29478 0.65817 0.65831 0.6581 0.36343-6e-5 0.65806-0.29468 0.6581-0.6581 6.1e-5 -0.3635-0.2946-0.65824-0.6581-0.65831zm2.3077 0.20352c-0.3635 6e-5 -0.65817 0.29478-0.6581 0.65831 6.1e-5 0.36343 0.29468 0.65806 0.6581 0.6581 0.3635 6e-5 0.65824-0.2946 0.65831-0.6581 5.9e-5 -0.36361-0.2947-0.65835-0.65831-0.65831zm3.8657 1.0556c-0.36361-6e-5 -0.65835 0.29488-0.65831 0.65849 6.1e-5 0.3635 0.29478 0.65799 0.65831 0.65792 0.36343-6e-5 0.65806-0.2945 0.6581-0.65792 6e-5 -0.3635-0.2946-0.65842-0.6581-0.65849zm-8.8934 0.0032c-0.36361-6e-5 -0.65835 0.2947-0.65831 0.65831 6e-5 0.3635 0.29478 0.65817 0.65831 0.6581 0.36343-6e-5 0.65806-0.29468 0.6581-0.6581 6.1e-5 -0.3635-0.2946-0.65824-0.6581-0.65831z"/>
</svg>