<?xml version="1.0" encoding="UTF-8"?>
<svg version="1.1" viewBox="0 0 24 24" xmlns="http://www.w3.org/2000/svg">
<path d="m6.7526 2.3999a0.47805 0.47856 0 0 0-0.41418 0.23913l-5.261 9.1222a0.47805 0.47856 0 0 0 1.85e-4 0.47845l5.261 9.1222a0.47805 0.47856 0 0 0 0.41381 0.23912h10.522a0.47805 0.47856 0 0 0 0.41381-0.23913l5.261-9.1222a0.47805 0.47856 0 0 0-1.85e-4 -0.47845l-5.2609-9.1221a0.47805 0.47856 0 0 0-0.414-0.23932h-10.522zm0.27574 0.95689 9.9702 1.61e-4 4.9849 8.6434-4.9849 8.6438-9.9702-1.61e-4 -4.9851-8.6437 4.9851-8.6437zm4.9855 6.3575a2.2874 2.2863 0 0 0-2.2874 2.2863 2.2874 2.2863 0 0 0 2.2874 2.2863 2.2874 2.2863 0 0 0 2.2874-2.2863 2.2874 2.2863 0 0 0-2.2874-2.2863z"/>
</svg>