<?xml version="1.0" encoding="UTF-8"?>
<svg version="1.1" viewBox="0 0 24 24" xmlns="http://www.w3.org/2000/svg">
<path d="m1.4598 2.3952a0.46006 0.46005 0 0 0-0.4598 0.45966v18.29a0.46006 0.46005 0 0 0 0.45983 0.46039h21.076a0.46006 0.46005 0 0 0 0.46038-0.46038v-9.0874a0.47733 0.47785 0 0 0-1e-6 -0.11547v-9.0879a0.46006 0.46005 0 0 0-0.4604-0.45962h-21.076zm0.46039 0.92002h4.0486l-4.0486 7.0199zm16.145 0h4.0108v6.9547l-4.0108-6.9546zm-11.026 0.054475 9.9553 1.607e-4 4.9774 8.6305-4.9775 8.6309-9.9553-1.61e-4 -4.9776-8.6308 4.9776-8.6308zm4.9781 6.348a2.2839 2.2829 0 0 0-2.284 2.2829 2.2839 2.2829 0 0 0 2.284 2.2829 2.2839 2.2829 0 0 0 2.284-2.2829 2.2839 2.2829 0 0 0-2.284-2.2829zm-10.098 3.9478 4.0489 7.0205h-4.0488v-7.0205zm20.157 0.06588v6.9545h-4.0108l4.0108-6.9544z"/>
</svg>