<?xml version="1.0" encoding="UTF-8"?>
<svg version="1.1" viewBox="0 0 24 24" xmlns="http://www.w3.org/2000/svg">
<path d="m4.937 2.179a0.78568 0.78568 0 0 0-0.6914 0.39598l-3.1427 5.4998a0.78568 0.78568 0 0 0 0.2797 1.063l3.7524 2.2518 2.9369 5.1407v4.5051a0.78568 0.78568 0 0 0 0.78568 0.78568h6.2855a0.78568 0.78568 0 0 0 0.78568-0.78568v-4.5051l2.9369-5.1407 3.7524-2.2518a0.78568 0.78568 0 0 0 0.27892-1.063l-3.1427-5.4998a0.78568 0.78568 0 0 0-1.0866-0.28363l-3.7422 2.2447h-5.8502l-3.7422-2.2447a0.78568 0.78568 0 0 0-0.39598-0.11235zm3.4712 3.9284h7.1843l2.2408 3.9221-3.5953 6.2918h-4.4753l-3.5953-6.2918zm3.5921 3.1427a1.5714 1.5714 0 0 0-1.5714 1.5714 1.5714 1.5714 0 0 0 1.5714 1.5714 1.5714 1.5714 0 0 0 1.5714-1.5714 1.5714 1.5714 0 0 0-1.5714-1.5714z"/>
</svg>