<?xml version="1.0" encoding="UTF-8"?>
<svg version="1.1" viewBox="0 0 24 24" xmlns="http://www.w3.org/2000/svg">
<path d="m12 2a10 10 0 0 0-10 10 10 10 0 0 0 10 10 10 10 0 0 0 10-10 10 10 0 0 0-10-10zm0 3.3333a6.6667 6.6667 0 0 1 6.6667 6.6667 6.6667 6.6667 0 0 1-6.6667 6.6667 6.6667 6.6667 0 0 1-6.6667-6.6667 6.6667 6.6667 0 0 1 6.6667-6.6667zm0 1.3333a5.3334 5.3334 0 0 0-5.3334 5.3334 5.3334 5.3334 0 0 0 5.3334 5.3334 5.3334 5.3334 0 0 0 5.3334-5.3334 5.3334 5.3334 0 0 0-5.3334-5.3334zm0 1.7776a3.5556 3.5556 0 0 1 3.5558 3.5558 3.5556 3.5556 0 0 1-3.5558 3.5558 3.5556 3.5556 0 0 1-3.5558-3.5558 3.5556 3.5556 0 0 1 3.5558-3.5558z"/>
</svg>