<?xml version="1.0" encoding="UTF-8"?>
<svg version="1.1" viewBox="0 0 24 24" xmlns="http://www.w3.org/2000/svg">
<path d="m12 2c-5.5229-2e-7 -10 4.477-10 9.9997 0 5.5228 4.4771 10 10 10s10-4.4775 10-10c0-5.5227-4.4771-9.9997-10-9.9997zm0 1.4666c4.7129 1e-7 8.5333 3.8204 8.5333 8.5331 0 4.7127-3.8205 8.5336-8.5333 8.5336-4.7129 0-8.5333-3.8209-8.5333-8.5336 0-4.7127 3.8205-8.5331 8.5333-8.5331zm-0.76146 2.4338-4.6297 10.603h1.8072l1.1942-2.7776h4.7489l1.2099 2.7776h1.8218l-4.6297-10.603h-1.5229zm0.74635 2.3593 1.7026 3.9124h-3.4046l1.7021-3.9124z"/>
</svg>