<?xml version="1.0" encoding="UTF-8"?>
<svg version="1.1" viewBox="0 0 24 24" xmlns="http://www.w3.org/2000/svg">
<path d="m12 2.0001a10 9.9997 0 0 0-5.5088 1.6629l2.4282 2.4281a6.6666 6.6665 0 0 1 3.0808-0.75779 6.6666 6.6665 0 0 1 3.0823 0.75623l2.4318-2.4317a10 9.9997 0 0 0-5.5141-1.6578zm8.3421 4.4858-2.4318 2.4317a6.6666 6.6665 0 0 1 0.75624 3.0822 6.6666 6.6665 0 0 1-0.75781 3.0807l2.4282 2.4281a10 9.9997 0 0 0 1.663-5.5087 10 9.9997 0 0 0-1.6578-5.5139zm-16.679 0.0052408a10 9.9997 0 0 0-1.663 5.5087 10 9.9997 0 0 0 1.663 5.5087l2.4282-2.4281a6.6666 6.6665 0 0 1-0.75781-3.0807 6.6666 6.6665 0 0 1 0.75781-3.0807l-2.4282-2.4281zm5.2562 11.418-2.4282 2.4281a10 9.9997 0 0 0 5.5088 1.6629 10 9.9997 0 0 0 5.5088-1.6629l-2.4282-2.4281a6.6666 6.6665 0 0 1-3.0808 0.75779 6.6666 6.6665 0 0 1-3.0808-0.75779z"/>
</svg>