<?xml version="1.0" encoding="UTF-8"?>
<svg version="1.1" viewBox="0 0 24 24" xmlns="http://www.w3.org/2000/svg">
<path d="m12 2c-5.5229 0-10 4.477-10 10 0 5.5229 4.477 10 10 10 5.5229 0 10-4.477 10-10 0-5.5229-4.477-10-10-10zm0 1.4667c4.7129 0 8.5333 3.8204 8.5333 8.5333 0 4.7129-3.8204 8.5333-8.5333 8.5333-4.7129 0-8.5333-3.8204-8.5333-8.5333 0-4.7129 3.8204-8.5333 8.5333-8.5333zm-4.0541 3.1594-1.3198 1.3198c1.3514 1.3514 2.7027 2.7027 4.0541 4.0541l-4.0541 4.0541 1.3198 1.3198 4.0541-4.0541 4.0541 4.0541 1.3198-1.3198-4.0541-4.0541 4.0541-4.0541-1.3198-1.3198-4.0541 4.0541z"/>
</svg>