<?xml version="1.0" encoding="UTF-8"?>
<svg version="1.1" viewBox="0 0 24 24" xmlns="http://www.w3.org/2000/svg">
<path d="m9.5553 1 4.78e-4 2.1713a9.1666 9.1666 0 0 0-6.3845 6.3854v-0.0014h-2.1713v4.8888h2.1713v-0.0014a9.1666 9.1666 0 0 0 6.3865 6.386h-0.0019v2.1713h4.8888v-2.1713h-0.0024a9.1666 9.1666 0 0 0 6.3865-6.3845h2.1713v-4.8888h-2.166a9.1666 9.1666 0 0 0-6.3894-6.3893v-2.1661h-4.8892zm2.4449 4.8888a6.1111 6.111 0 0 1 6.111 6.111 6.1111 6.111 0 0 1-6.111 6.111 6.1111 6.111 0 0 1-6.111-6.111 6.1111 6.111 0 0 1 6.111-6.111zm0 1.2222a4.8889 4.8889 0 0 0-4.8888 4.8888 4.8889 4.8889 0 0 0 4.8888 4.8888 4.8889 4.8889 0 0 0 4.8888-4.8888 4.8889 4.8889 0 0 0-4.8888-4.8888zm0 1.6294a3.2593 3.2592 0 0 1 3.2593 3.2593 3.2593 3.2592 0 0 1-3.2593 3.2593 3.2593 3.2592 0 0 1-3.2593-3.2593 3.2593 3.2592 0 0 1 3.2593-3.2593z"/>
</svg>