<?xml version="1.0" encoding="UTF-8"?>
<svg version="1.1" viewBox="0 0 24 24" xmlns="http://www.w3.org/2000/svg">
<path d="m12 2c-5.5228-2e-7 -10 4.4772-10 10 0 5.5228 4.4772 10 10 10 5.5228 0 10-4.4772 10-10 0-5.5228-4.4772-10-10-10zm0 1.4667c4.7128 1e-7 8.5333 3.8205 8.5333 8.5333s-3.8205 8.5333-8.5333 8.5333-8.5333-3.8205-8.5333-8.5333 3.8205-8.5333 8.5333-8.5333zm-3.9109 3.5489v9.9688h1.7968v-4.0969h2.5265l1.5484 4.0969h1.8989l-1.7458-4.4036c1.1978-0.482 1.7968-1.3632 1.7968-2.6437 0-0.86176-0.28263-1.5632-0.8474-2.1036-0.56477-0.5453-1.4484-0.81771-2.651-0.81771h-4.3235zm1.7968 1.4313h2.3807c0.5599 0 0.99569 0.13673 1.3073 0.40938 0.31159 0.26778 0.46719 0.62067 0.46719 1.0589 0 0.47714-0.15801 0.85183-0.47448 1.1245-0.31647 0.27265-0.79881 0.40885-1.4464 0.40885h-2.2344v-3.0015z"/>
</svg>