<?xml version="1.0" encoding="UTF-8"?>
<svg version="1.1" viewBox="0 0 24 24" xmlns="http://www.w3.org/2000/svg">
<path d="m12 2a10 10 0 0 0-10 10 10 10 0 0 0 10 10 10 10 0 0 0 10-10 10 10 0 0 0-10-10zm0 1.4667a8.5333 8.5333 0 0 1 8.5333 8.5333 8.5333 8.5333 0 0 1-8.5333 8.5333 8.5333 8.5333 0 0 1-8.5333-8.5333 8.5333 8.5333 0 0 1 8.5333-8.5333zm0 2.6406a2.3582 2.3582 0 0 0-0.58906 4.6401v5.9245c-2.132-0.26694-3.8228-1.9658-4.0885-4.1083h1.7312l-2.1822-3.5099c-0.48614 0.8609-0.76406 1.856-0.76406 2.9167 0 3.2703 2.6382 5.9224 5.8927 5.9224 3.2544 0 5.8927-2.652 5.8927-5.9224a5.9167 5.9167 0 0 0-0.76406-2.9167l-2.1822 3.5099h1.7312c-0.26576 2.1425-1.956 3.8414-4.0885 4.1083v-5.9245a2.357 2.357 0 0 0-0.58906-4.6401zm0 1.1786a1.1787 1.1787 0 0 1 0 2.3573 1.1787 1.1787 0 0 1 0-2.3573z"/>
</svg>