<?xml version="1.0" encoding="UTF-8"?>
<svg version="1.1" viewBox="0 0 24 24" xmlns="http://www.w3.org/2000/svg">
<path d="m12 2.5005c-5.2462 0-9.5 4.3598-9.5 9.7417 0 4.3047 2.7228 7.952 6.4973 9.2413 0.475 0.08906 0.64888-0.21205 0.64888-0.47076 0-0.23326-0.0085-0.84397-0.01272-1.6583-2.6422 0.58951-3.202-1.3062-3.202-1.3062-0.43259-1.1239-1.056-1.425-1.056-1.425-0.86094-0.60647 0.06362-0.59375 0.06362-0.59375 0.95424 0.06786 1.4547 1.0051 1.4547 1.0051 0.84821 1.4886 2.2223 1.0603 2.7652 0.81004 0.08482-0.62768 0.3308-1.0603 0.60223-1.302-2.1078-0.24598-4.3259-1.0815-4.3259-4.8136 0-1.0645 0.36897-1.9339 0.97545-2.6125-0.09755-0.24598-0.42411-1.2384 0.0933-2.5786 0 0 0.79732-0.26295 2.6125 0.99665 0.75915-0.2163 1.5692-0.32232 2.3792-0.32656 0.8058 0.0042 1.6201 0.11027 2.3792 0.32656 1.8152-1.2596 2.6083-0.99665 2.6083-0.99665 0.51741 1.3402 0.19085 2.3326 0.0933 2.5786 0.60647 0.68281 0.97545 1.5522 0.97545 2.6125 0 3.7406-2.2223 4.5634-4.3386 4.8051 0.33929 0.30112 0.64464 0.89487 0.64464 1.8025 0 1.302-0.01272 2.3538-0.01272 2.6719 0 0.25871 0.16964 0.56406 0.65312 0.46652 3.783-1.285 6.5016-4.9324 6.5016-9.2328 0-5.3819-4.2538-9.7417-9.5-9.7417z"/>
</svg>