<?xml version="1.0" encoding="UTF-8"?>
<svg version="1.1" viewBox="0 0 24 24" xmlns="http://www.w3.org/2000/svg">
<path d="m18.36 5.64c-1.95-1.96-5.11-1.96-7.07 0l-1.41 1.41-1.42-1.41 1.42-1.42c2.73-2.73 7.16-2.73 9.9 0 2.73 2.74 2.73 7.17 0 9.9l-1.42 1.42-1.41-1.42 1.41-1.41c1.96-1.96 1.96-5.12 0-7.07zm-2.12 3.53-7.07 7.07-1.41-1.41 7.07-7.07zm-12.02 0.71 1.42-1.42 1.41 1.42-1.41 1.41c-1.96 1.96-1.96 5.12 0 7.07 1.95 1.96 5.11 1.96 7.07 0l1.41-1.41 1.42 1.41-1.42 1.42c-2.73 2.73-7.16 2.73-9.9 0-2.73-2.74-2.73-7.17 0-9.9z"/>
</svg>