<?xml version="1.0" encoding="UTF-8"?>
<svg version="1.1" viewBox="0 0 24 24" xmlns="http://www.w3.org/2000/svg">
<path d="m12 1a11 11 0 0 0-11 11 11 11 0 0 0 11 11 11 11 0 0 0 11-11 11 11 0 0 0-11-11zm0 0.80078a10.2 10.2 0 0 1 10.199 10.199 10.2 10.2 0 0 1-10.199 10.199 10.2 10.2 0 0 1-10.199-10.199 10.2 10.2 0 0 1 10.199-10.199zm0 1.1992a9 9 0 0 0-9 9 9 9 0 0 0 9 9 9 9 0 0 0 9-9 9 9 0 0 0-9-9zm0 0.80078a8.2 8.2 0 0 1 8.1992 8.1992 8.2 8.2 0 0 1-8.1992 8.1992 8.2 8.2 0 0 1-8.1992-8.1992 8.2 8.2 0 0 1 8.1992-8.1992z"/>
</svg>