<?xml version="1.0" encoding="UTF-8"?>
<svg version="1.1" viewBox="0 0 24 24" xmlns="http://www.w3.org/2000/svg">
<path d="m21.506 15.365c-0.1874-0.16146-7.6627-5.5834-7.6627-5.5834-0.01042-0.010418-0.02083-0.020836-0.02603-0.026045-0.28632-0.29166-0.2707-0.54165-0.29152-0.97916 0 0-0.04685-3.5937-0.11452-4.7917-0.06767-1.1979-0.69235-1.9844-1.4212-1.9844-0.72881 0-1.3483 0.78125-1.416 1.9792-0.06767 1.1979-0.11452 4.7917-0.11452 4.7917-0.02082 0.43751-0.0052 0.68751-0.29152 0.97916-0.01041 0.010418-0.02082 0.020827-0.02603 0.026036 0 0-7.4701 5.422-7.6627 5.5834-0.19261 0.16146-0.47892 0.40625-0.47892 0.94791 0 0.63542 0.18741 0.71354 0.55181 0.60417 0 0 7.2984-2.0573 7.5689-2.125 0.2707-0.06771 0.41126 0.03125 0.43206 0.39063 0.02083 0.35937 0.04165 2.4166 0.04686 2.6562 0.0052 0.23958-0.03124 0.24479-0.15096 0.38542l-1.6658 2.125c-0.0885 0.10416-0.14055 0.23437-0.14055 0.3802v0.64582c0 0.32811 0.14576 0.3802 0.42686 0.25521 0.28111-0.125 1.6971-0.90625 1.6971-0.90625 0.03644-0.01563 0.23946-0.09896 0.33318-0.09896 0.21864 0 0.41646-0.0052 0.45809 0.32291 0.06767 0.59374 0.25508 1.0573 0.44249 1.0573s0.3748-0.46354 0.44249-1.0573c0.03644-0.32811 0.23946-0.32291 0.45809-0.32291 0.0937 0 0.29672 0.08333 0.33318 0.09896 0 0 1.416 0.78125 1.697 0.90625 0.28111 0.125 0.42686 0.07292 0.42686-0.25521v-0.64582c0-0.14583-0.05205-0.28125-0.14055-0.3802l-1.6658-2.125c-0.11973-0.14062-0.15096-0.15104-0.15096-0.38542 0-0.23437 0.02603-2.2969 0.04685-2.6562 0.02082-0.35937 0.16138-0.45834 0.43206-0.39063 0.27069 0.06771 7.5689 2.125 7.5689 2.125 0.3696 0.10937 0.55181 0.03125 0.55181-0.60417-0.01562-0.53645-0.30192-0.78125-0.49455-0.94271z"/>
</svg>