<?xml version="1.0" encoding="UTF-8"?>
<svg version="1.1" viewBox="0 0 24 24" xmlns="http://www.w3.org/2000/svg">
<path d="m12.148 21.99 0.35576-2.0232h1.989l0.30152 0.13042-0.24336-0.90259h-1.9899l0.03526-1.0426h1.8965v-0.76572h-1.8712l0.1156-3.3651 0.87144-2.9745 5.0915 4.9914v-0.7233l-4.976-5.2812 1.9899-0.29971v-1.0654l-1.9293-0.84365 4.9155-5.1605v-0.63214l-0.06094-0.03256-4.9153 4.8772-0.40722-2.7985h-0.35552s-0.57322-1.4269-1.0031-1.4269c-0.42893 0-1.0025 1.4269-1.0025 1.4269h-0.35273l-0.40639 2.7985-4.8963-4.8545v0.72665l4.8346 5.0758-1.9285 0.84365v1.0654l1.9899 0.29971-4.8961 5.1963v0.72967l5.008-4.9129 0.8751 2.9745 0.12135 3.3651h-1.9255v0.76572h1.9547l0.03838 1.0491h-1.993l-0.24062 0.90581 0.30118-0.13047h1.9932l0.35224 2.0233z"/>
</svg>