<?xml version="1.0" encoding="UTF-8"?>
<svg version="1.1" viewBox="0 0 24 24" xmlns="http://www.w3.org/2000/svg">
<path d="m16.697 5.0369c-1.222-0.061161-2.6789 0.51987-3.8899 2.2018l-0.80498 1.1111-0.80598-1.1111c-1.212-1.6819-2.6699-2.263-3.8919-2.2018-1.243 0.071355-2.3489 0.7951-2.9099 1.947-0.55198 1.1417-0.63298 2.8338 0.47899 4.9133 1.074 2.0081 3.2569 4.3527 7.1288 6.7379 3.8699-2.3853 6.0518-4.7298 7.1258-6.7379 1.111-2.0795 1.03-3.7716 0.47698-4.9133-0.56098-1.1519-1.6659-1.8756-2.9079-1.947zm4.1869 7.8389c-1.351 2.528-4.0009 5.2191-8.3787 7.8185l-0.50298 0.30581-0.50398-0.30581c-4.3789-2.5994-7.0288-5.2905-8.3817-7.8185-1.36-2.5484-1.41-4.9541-0.51398-6.7991 0.88697-1.8246 2.6469-2.9663 4.6009-3.0683 1.6509-0.091742 3.3679 0.57084 4.7979 2.0489 1.429-1.4781 3.1459-2.1406 4.7959-2.0489 1.9539 0.10194 3.7139 1.2436 4.6009 3.0683 0.89597 1.845 0.84597 4.2507-0.51398 6.7991z"/>
</svg>