<?xml version="1.0" encoding="UTF-8"?>
<svg version="1.1" viewBox="0 0 24 24" xmlns="http://www.w3.org/2000/svg">
<path d="m10.677 21.132c-2.344-1.8031-4.0557-3.5658-5.3168-5.4753-1.4096-2.1342-1.8677-3.5954-1.768-5.6395 0.13956-2.8617 1.502-5.1913 3.9729-6.7936 1.0929-0.70866 2.3988-1.1103 3.9178-1.2048 2.4789-0.15427 4.6502 0.66027 6.3735 2.3909 1.1664 1.1714 1.6606 1.949 2.141 3.3687 0.92195 2.725 0.33643 5.5847-1.7308 8.453-1.2902 1.7902-5.6369 5.772-6.2977 5.7689-0.09022 0-0.67158-0.3912-1.2919-0.86838zm2.0443-2.0291c1.0911-0.85767 2.9637-2.7679 3.7635-3.8392 0.98194-1.3152 1.708-2.8478 1.901-4.0128 0.5124-3.0922-1.8007-6.4147-4.9753-7.1466-2.7444-0.63268-5.8641 0.79135-7.1111 3.246-1.6157 3.1804-0.69904 6.256 2.9626 9.9398 1.0786 1.0851 2.5322 2.3158 2.7318 2.3129 0.05119-0.0014 0.37858-0.22579 0.72752-0.50008zm-0.72123-12.116a3.4409 3.4409 0 0 0-3.4414 3.4414 3.4409 3.4409 0 0 0 3.4414 3.4414 3.4409 3.4409 0 0 0 3.4414-3.4414 3.4409 3.4409 0 0 0-3.4414-3.4414zm0 1.9629a1.4777 1.4777 0 0 1 1.4785 1.4785 1.4777 1.4777 0 0 1-1.4785 1.4766 1.4777 1.4777 0 0 1-1.4785-1.4766 1.4777 1.4777 0 0 1 1.4785-1.4785z"/>
</svg>