<?xml version="1.0" encoding="UTF-8"?>
<svg version="1.1" viewBox="0 0 24 24" xmlns="http://www.w3.org/2000/svg">
<path d="m9.4286 14.571c-2.8571 0-5.1429-2.2857-5.1429-5.1429 0-2.8571 2.2857-5.1429 5.1429-5.1429 2.8571 0 5.1429 2.2857 5.1429 5.1429 0 2.8571-2.2857 5.1429-5.1429 5.1429zm6.8571 0h-0.91428l-0.34286-0.34286c1.1429-1.2571 1.8286-2.9714 1.8286-4.8 0-4.1143-3.3143-7.4286-7.4286-7.4286-4.1143 0-7.4286 3.3143-7.4286 7.4286 0 4.1143 3.3143 7.4286 7.4286 7.4286 1.8286 0 3.5429-0.68571 4.8-1.8286l0.34286 0.34286v0.91428l5.7143 5.7143 1.7143-1.7143z"/>
</svg>